<?xml version="1.0" encoding="utf-8"?>
<!-- Generator: Adobe Illustrator 24.3.0, SVG Export Plug-In . SVG Version: 6.00 Build 0)  -->
<svg version="1.1" id="Layer_1" xmlns="http://www.w3.org/2000/svg" xmlns:xlink="http://www.w3.org/1999/xlink" x="0px" y="0px"
	 viewBox="0 0 512 512" style="enable-background:new 0 0 512 512;" xml:space="preserve">
<style type="text/css">
	.st0{fill:#470137;}
	.st1{fill-rule:evenodd;clip-rule:evenodd;fill:#FF61F6;}
	.st2{fill:#FF61F6;}
</style>
<g id="Dreamweaver" transform="translate(1887 308)">
	<path id="Прямоугольник_12" class="st0" d="M-1807.03-308h352.05c44.13,0,79.97,35.84,79.97,79.97v352.05
		c0,44.13-35.84,79.97-79.97,79.97h-352.05c-44.13,0-79.97-35.84-79.97-79.97v-352.05C-1887-272.16-1851.16-308-1807.03-308z"/>
	<path id="Контур_23" class="st1" d="M-1828.32-165.05h0.2c23.86-0.41,45.06-0.61,63.59-0.61c35.64,0,63.18,10.04,82.12,30.31
		c18.84,20.28,28.26,46.8,28.26,79.36c0.2,15.87-2.25,31.64-7.48,46.59c-3.99,12.29-10.34,23.55-18.74,33.38
		c-7.78,8.6-17,15.77-27.24,21.09l0,0c-9.83,5.22-20.28,9.11-31.13,11.47l0,0c-10.44,2.05-20.99,3.07-31.64,3.07
		c-20.79,0-39.94-0.2-57.65-0.61c-1.54,0-2.97-0.72-3.79-2.05c-0.72-1.13-1.02-2.46-0.92-3.79v-212.68c0-1.23,0.31-2.46,1.02-3.48
		c0.82-1.02,1.95-1.74,3.28-1.95L-1828.32-165.05z M-1718.24-111.7c-10.85-12.08-26.11-18.23-46.28-18.23
		c-10.75,0-18.12,0.1-22.32,0.41V23.47c6.14,0.31,12.29,0.51,18.43,0.51c21.3,0,37.58-6.35,49.25-18.64
		c11.67-12.49,17.82-32.36,17.82-60.31C-1701.45-81.08-1707.19-99.82-1718.24-111.7L-1718.24-111.7z"/>
	<path id="Контур_24" class="st2" d="M-1505.05,54.39v-0.2c-12.19-50.69-20.28-85.4-24.37-103.94
		c-0.82,3.07-1.64,6.55-2.66,10.24c-2.46,9.52-6.45,23.86-11.88,43.11c-5.32,18.94-9.93,35.84-13.93,50.59
		c-0.31,1.33-1.02,2.56-2.15,3.48c-1.13,0.82-2.46,1.33-3.89,1.23h-35.12c-1.43,0-2.87-0.41-3.99-1.13
		c-1.23-0.82-2.05-1.95-2.56-3.38v-0.1L-1648-101.46v-0.1c-0.41-1.54-0.2-3.28,0.82-4.61c1.02-1.23,2.66-1.95,4.3-1.84h36.04
		c1.23,0,2.46,0.41,3.48,1.13c0.92,0.72,1.64,1.74,2.05,2.87l0.1,0.2l0.1,0.2c11.06,45.06,19.35,80.9,24.58,107.52
		c4.2-17.51,13.21-53.25,26.83-107.21v-0.1l0.1-0.1c0.41-1.23,1.13-2.25,2.05-3.07c1.02-0.92,2.25-1.33,3.58-1.33h34.1
		c1.33,0,2.56,0.51,3.58,1.43c0.82,0.92,1.33,1.95,1.54,3.17c12.7,52.12,21.2,88.06,25.4,107.72c5.94-28.77,14.54-64.61,25.7-107.83
		c0.2-1.33,0.92-2.56,1.95-3.38c1.13-0.82,2.46-1.23,3.79-1.13h32.46c1.43-0.1,2.76,0.51,3.79,1.54c0.92,1.13,1.23,2.56,1.02,3.99
		v0.2l-46.49,156.67l-0.1,0.2c-1.02,2.46-3.48,4.1-6.14,4.2h-35.43c-1.33,0-2.66-0.41-3.79-1.23c-1.02-0.82-1.74-1.95-2.15-3.17
		L-1505.05,54.39z"/>
</g>
</svg>
