<?xml version="1.0" encoding="utf-8"?>
<!-- Generator: Adobe Illustrator 24.3.0, SVG Export Plug-In . SVG Version: 6.00 Build 0)  -->
<svg version="1.1" id="Layer_1" xmlns="http://www.w3.org/2000/svg" xmlns:xlink="http://www.w3.org/1999/xlink" x="0px" y="0px"
	 viewBox="0 0 512 512" style="enable-background:new 0 0 512 512;" xml:space="preserve">
<style type="text/css">
	.st0{fill:#00005B;}
	.st1{fill:#9999FF;}
</style>
<g id="Premiere_Rush" transform="translate(4383 308)">
	<path id="Прямоугольник_25" class="st0" d="M-4303.03-308h352.05c44.13,0,79.97,35.84,79.97,79.97v352.05
		c0,44.13-35.84,79.97-79.97,79.97h-352.05c-44.13,0-79.97-35.84-79.97-79.97v-352.05C-4383-272.16-4347.16-308-4303.03-308z"/>
	<path id="Контур_50" class="st1" d="M-4254.39,58.9h-39.94c-1.84,0-2.66-1.02-2.66-2.97v-215.14c0-2.05,0.61-3.07,2.05-3.07
		l20.27-0.41h50.59c16.28-0.51,32.46,2.25,47.72,7.99c11.88,4.61,22.22,12.6,29.49,23.04c7.17,10.96,10.75,23.96,10.34,37.07
		c0.1,8.81-1.74,17.41-5.43,25.4c-3.79,7.48-9.01,14.03-15.26,19.56c-6.45,5.84-13.82,10.44-21.91,13.72
		c2.15,2.97,5.43,7.27,9.11,13.31s8.5,12.6,13.31,19.97l14.54,22.12c4.81,7.48,9.11,14.34,13.21,20.68
		c4.1,6.35,6.96,11.26,9.11,14.95c0.61,0.72,0.92,1.74,0.82,2.66c0,0.72-0.61,1.33-1.33,1.43c-0.1,0-0.1,0-0.2,0h-48.74
		c-1.02,0.2-2.05,0.2-2.97,0c-0.72-0.41-1.33-0.92-1.74-1.54c-2.46-3.58-5.53-8.29-9.11-14.13c-3.58-5.84-7.68-12.39-11.78-19.66
		c-4.1-7.27-8.29-14.34-12.49-21.3c-4.2-6.96-7.89-13.31-10.96-18.94c-1.13-1.74-2.46-3.28-3.89-4.61c-1.23-0.92-2.66-1.33-4.2-1.23
		h-25.19v78.85c0.1,1.33-0.92,2.46-2.15,2.56C-4254.08,58.9-4254.28,58.9-4254.39,58.9z M-4251.72-62.85h26.42
		c7.58,0.2,15.15-0.82,22.43-3.17c5.73-1.74,10.65-5.22,14.34-9.93c3.48-4.92,5.33-10.85,5.12-16.9
		c0.72-9.11-3.79-17.72-11.57-22.53c-9.32-5.02-19.87-7.48-30.41-6.96h-26.01L-4251.72-62.85z"/>
	<path id="Контур_51" class="st1" d="M-3958.45-106.89V36.17c-0.1,3.89,0.1,7.68,0.61,11.47c0.41,2.76,0.72,5.53,0.82,8.29
		c0.2,2.25-0.51,2.66-2.25,2.66h-36.56c-1.74,0.2-3.38-0.82-4.1-2.36c-0.31-1.74-0.72-3.48-1.23-5.22
		c-0.31-1.74-0.41-3.48-0.41-5.22c-6.66,6.04-14.54,10.44-23.14,13.11c-7.58,2.05-15.46,3.07-23.35,3.17
		c-7.78,0.1-15.46-1.13-22.84-3.58c-6.96-2.25-13.21-6.14-18.33-11.47c-5.43-5.84-9.42-12.8-11.88-20.28
		c-3.07-9.73-4.4-19.87-4.2-30v-103.32c-0.21-1.33,0.82-2.56,2.15-2.76c0.21,0,0.41,0,0.61,0h41.57c1.33-0.2,2.46,0.72,2.66,2.05
		c0,0.2,0,0.51,0,0.72v98.1c-0.31,7.68,2.05,15.26,6.45,21.61c5.12,5.73,12.6,8.7,20.28,7.99c4.81,0,9.63-0.82,14.13-2.56
		c4.3-1.74,8.29-4.1,11.88-6.96V-107.3c0-1.54,1.02-2.36,2.97-2.36h41.57c1.13-0.2,2.25,0.51,2.46,1.64
		C-3958.35-107.6-3958.35-107.19-3958.45-106.89L-3958.45-106.89z"/>
</g>
</svg>
